<?xml version="1.0" encoding="UTF-8"?>
<svg width="104px" height="53px" viewBox="0 0 104 53" version="1.1" xmlns="http://www.w3.org/2000/svg" xmlns:xlink="http://www.w3.org/1999/xlink">
    <!-- Generator: Sketch 44.1 (41455) - http://www.bohemiancoding.com/sketch -->
    <title>ninniku</title>
    <desc>Created with Sketch.</desc>
    <defs>
        <rect id="path-1" x="25" y="10" width="21" height="17"></rect>
        <rect id="path-2" x="15" y="26" width="21" height="17"></rect>
        <rect id="path-3" x="26" y="36" width="21" height="17"></rect>
        <rect id="path-4" x="0" y="28" width="21" height="17"></rect>
        <rect id="path-5" x="5" y="35" width="21" height="17"></rect>
        <rect id="path-6" x="39" y="23" width="21" height="17"></rect>
        <rect id="path-7" x="50" y="33" width="21" height="17"></rect>
        <rect id="path-8" x="24" y="25" width="21" height="17"></rect>
        <path d="M29,32 L50,32 L50,49 L36.2830531,49 C33.041489,49 31.1517395,49 30.6138046,49 C30.0758698,49 29.5379349,49 29,49 L29,32 Z" id="path-9"></path>
        <rect id="path-10" x="36" y="20" width="21" height="17"></rect>
        <rect id="path-11" x="10" y="12" width="21" height="17"></rect>
        <rect id="path-12" x="15" y="19" width="21" height="17"></rect>
        <rect id="path-13" x="54" y="0" width="21" height="17"></rect>
        <rect id="path-14" x="65" y="10" width="21" height="17"></rect>
        <rect id="path-15" x="39" y="2" width="21" height="17"></rect>
        <rect id="path-16" x="44" y="9" width="21" height="17"></rect>
        <rect id="path-17" x="72" y="24" width="21" height="17"></rect>
        <rect id="path-18" x="83" y="34" width="21" height="17"></rect>
        <rect id="path-19" x="57" y="26" width="21" height="17"></rect>
        <rect id="path-20" x="62" y="33" width="21" height="17"></rect>
    </defs>
    <g id="Page-1" stroke="none" stroke-width="1" fill="none" fill-rule="evenodd">
        <g id="ジロスタック" transform="translate(-125.000000, -566.000000)">
            <g id="ninniku" transform="translate(125.000000, 566.000000)">
                <g id="Rectangle-8">
                    <use fill="#EAE497" fill-rule="evenodd" xlink:href="#path-1"></use>
                    <rect stroke="#979797" stroke-width="1" x="25.5" y="10.5" width="20" height="16"></rect>
                </g>
                <g id="Rectangle-8">
                    <use fill="#D8CD3D" fill-rule="evenodd" xlink:href="#path-2"></use>
                    <rect stroke="#979797" stroke-width="1" x="15.5" y="26.5" width="20" height="16"></rect>
                </g>
                <g id="Rectangle-8">
                    <use fill="#EAE497" fill-rule="evenodd" xlink:href="#path-3"></use>
                    <rect stroke="#979797" stroke-width="1" x="26.5" y="36.5" width="20" height="16"></rect>
                </g>
                <g id="Rectangle-8">
                    <use fill="#EAE497" fill-rule="evenodd" xlink:href="#path-4"></use>
                    <rect stroke="#979797" stroke-width="1" x="0.5" y="28.5" width="20" height="16"></rect>
                </g>
                <g id="Rectangle-8">
                    <use fill="#EAE497" fill-rule="evenodd" xlink:href="#path-5"></use>
                    <rect stroke="#979797" stroke-width="1" x="5.5" y="35.5" width="20" height="16"></rect>
                </g>
                <g id="Rectangle-8">
                    <use fill="#D8CD3D" fill-rule="evenodd" xlink:href="#path-6"></use>
                    <rect stroke="#979797" stroke-width="1" x="39.5" y="23.5" width="20" height="16"></rect>
                </g>
                <g id="Rectangle-8">
                    <use fill="#EAE497" fill-rule="evenodd" xlink:href="#path-7"></use>
                    <rect stroke="#979797" stroke-width="1" x="50.5" y="33.5" width="20" height="16"></rect>
                </g>
                <g id="Rectangle-8">
                    <use fill="#EAE497" fill-rule="evenodd" xlink:href="#path-8"></use>
                    <rect stroke="#979797" stroke-width="1" x="24.5" y="25.5" width="20" height="16"></rect>
                </g>
                <g id="Rectangle-8">
                    <use fill="#EAE497" fill-rule="evenodd" xlink:href="#path-9"></use>
                    <path stroke="#979797" stroke-width="1" d="M29.5,32.5 L29.5,48.5 C29.884359,48.5 30.0569023,48.5 30.6138046,48.5 L49.5,48.5 L49.5,32.5 L29.5,32.5 Z"></path>
                </g>
                <g id="Rectangle-8">
                    <use fill="#EAE497" fill-rule="evenodd" xlink:href="#path-10"></use>
                    <rect stroke="#979797" stroke-width="1" x="36.5" y="20.5" width="20" height="16"></rect>
                </g>
                <g id="Rectangle-8">
                    <use fill="#EAE497" fill-rule="evenodd" xlink:href="#path-11"></use>
                    <rect stroke="#979797" stroke-width="1" x="10.5" y="12.5" width="20" height="16"></rect>
                </g>
                <g id="Rectangle-8">
                    <use fill="#EAE497" fill-rule="evenodd" xlink:href="#path-12"></use>
                    <rect stroke="#979797" stroke-width="1" x="15.5" y="19.5" width="20" height="16"></rect>
                </g>
                <g id="Rectangle-8">
                    <use fill="#EAE497" fill-rule="evenodd" xlink:href="#path-13"></use>
                    <rect stroke="#979797" stroke-width="1" x="54.5" y="0.5" width="20" height="16"></rect>
                </g>
                <g id="Rectangle-8">
                    <use fill="#EAE497" fill-rule="evenodd" xlink:href="#path-14"></use>
                    <rect stroke="#979797" stroke-width="1" x="65.5" y="10.5" width="20" height="16"></rect>
                </g>
                <g id="Rectangle-8">
                    <use fill="#EAE497" fill-rule="evenodd" xlink:href="#path-15"></use>
                    <rect stroke="#979797" stroke-width="1" x="39.5" y="2.5" width="20" height="16"></rect>
                </g>
                <g id="Rectangle-8">
                    <use fill="#EAE497" fill-rule="evenodd" xlink:href="#path-16"></use>
                    <rect stroke="#979797" stroke-width="1" x="44.5" y="9.5" width="20" height="16"></rect>
                </g>
                <g id="Rectangle-8">
                    <use fill="#EAE497" fill-rule="evenodd" xlink:href="#path-17"></use>
                    <rect stroke="#979797" stroke-width="1" x="72.5" y="24.5" width="20" height="16"></rect>
                </g>
                <g id="Rectangle-8">
                    <use fill="#EAE497" fill-rule="evenodd" xlink:href="#path-18"></use>
                    <rect stroke="#979797" stroke-width="1" x="83.5" y="34.5" width="20" height="16"></rect>
                </g>
                <g id="Rectangle-8">
                    <use fill="#EAE497" fill-rule="evenodd" xlink:href="#path-19"></use>
                    <rect stroke="#979797" stroke-width="1" x="57.5" y="26.5" width="20" height="16"></rect>
                </g>
                <g id="Rectangle-8">
                    <use fill="#EAE497" fill-rule="evenodd" xlink:href="#path-20"></use>
                    <rect stroke="#979797" stroke-width="1" x="62.5" y="33.5" width="20" height="16"></rect>
                </g>
            </g>
        </g>
    </g>
</svg>