<?xml version="1.0" encoding="UTF-8"?>
<svg width="329px" height="111px" viewBox="0 0 329 111" version="1.1" xmlns="http://www.w3.org/2000/svg" xmlns:xlink="http://www.w3.org/1999/xlink">
    <!-- Generator: Sketch 44.1 (41455) - http://www.bohemiancoding.com/sketch -->
    <title>yasai</title>
    <desc>Created with Sketch.</desc>
    <defs>
        <polygon id="path-1" points="64.9593287 43.8855046 93.9593287 3.12001809 122.959329 43.8855046 109.543853 67.4042 122.959329 107.885505 64.9593287 107.885505 71.4146761 86.5172865"></polygon>
        <path d="M200.864786,82.6888516 L229.864786,41.9233651 C233.48815,55.7019621 236.724623,64.5940989 239.574206,68.5997752 C242.423788,72.6054516 248.853982,77.3018104 258.864786,82.6888516 L245.449311,106.207547 L258.864786,146.688852 C246.559488,133.369256 238.230783,126.709458 233.878672,126.709458 C229.526561,126.709458 218.521932,133.369256 200.864786,146.688852 L207.320134,125.320633 C218.364325,111.114029 223.475461,101.296707 222.653542,95.8686668 C221.831623,90.4406269 214.568704,86.0473551 200.864786,82.6888516 Z" id="path-2"></path>
    </defs>
    <g id="Page-1" stroke="none" stroke-width="1" fill="none" fill-rule="evenodd">
        <g id="ジロスタック" transform="translate(0.000000, -199.000000)">
            <g id="yasai" transform="translate(0.000000, 184.000000)">
                <path d="M190.048724,91.3717293 C286.252937,91.3717293 328.048724,106.283669 328.048724,96.651008 C328.048724,92.2546383 315.178776,88.3802233 293.940836,85.4670979 C268.645412,81.9974231 293.940836,79.8914314 190.048724,79.8914314 C113.833429,79.8914314 52.0487245,87.0183468 52.0487245,96.651008 C52.0487245,106.283669 93.8445121,91.3717293 190.048724,91.3717293 Z" id="もやし" stroke="#979797" fill="#FCFCE8" transform="translate(190.048724, 89.891431) rotate(-8.000000) translate(-190.048724, -89.891431) "></path>
                <path d="M170.407437,83.5070229 C262.487615,83.5070229 302.491722,96.9277689 302.491722,88.2583737 C302.491722,84.301641 290.173476,80.8146675 269.845954,78.1928547 C245.63488,75.0701473 269.845954,73.1747548 170.407437,73.1747548 C97.4593005,73.1747548 38.3231517,79.5889786 38.3231517,88.2583737 C38.3231517,96.9277689 78.3272584,83.5070229 170.407437,83.5070229 Z" id="もやし" stroke="#979797" fill="#FCFCE8" transform="translate(170.407437, 82.174755) rotate(13.000000) translate(-170.407437, -82.174755) "></path>
                <path d="M185.335969,97.6352083 C281.540182,97.6352083 323.335969,112.547148 323.335969,102.914487 C323.335969,98.5181173 310.46602,94.6437023 289.228081,91.7305769 C263.932656,88.2609021 289.228081,86.1549104 185.335969,86.1549104 C109.120674,86.1549104 47.3359692,93.2818258 47.3359692,102.914487 C47.3359692,112.547148 89.1317568,97.6352083 185.335969,97.6352083 Z" id="もやし" stroke="#979797" fill="#FCFCE8" transform="translate(185.335969, 96.154910) rotate(-355.000000) translate(-185.335969, -96.154910) "></path>
                <path d="M190,110.480298 C286.204212,110.480298 328,125.392238 328,115.759577 C328,111.363207 315.130051,107.488792 293.892112,104.575667 C268.596687,101.105992 293.892112,99 190,99 C113.784705,99 52,106.126915 52,115.759577 C52,125.392238 93.7957876,110.480298 190,110.480298 Z" id="もやし" stroke="#979797" fill="#FCFCE8"></path>
                <path d="M151.048724,52.3717293 C247.252937,52.3717293 289.048724,67.2836693 289.048724,57.651008 C289.048724,53.2546383 276.178776,49.3802233 254.940836,46.4670979 C229.645412,42.9974231 254.940836,40.8914314 151.048724,40.8914314 C74.833429,40.8914314 13.0487245,48.0183468 13.0487245,57.651008 C13.0487245,67.2836693 54.8445121,52.3717293 151.048724,52.3717293 Z" id="もやし" stroke="#979797" fill="#FCFCE8" transform="translate(151.048724, 50.891431) rotate(-8.000000) translate(-151.048724, -50.891431) "></path>
                <path d="M131.407437,44.5070229 C223.487615,44.5070229 263.491722,57.9277689 263.491722,49.2583737 C263.491722,45.301641 251.173476,41.8146675 230.845954,39.1928547 C206.63488,36.0701473 230.845954,34.1747548 131.407437,34.1747548 C58.4593005,34.1747548 -0.676848308,40.5889786 -0.676848308,49.2583737 C-0.676848308,57.9277689 39.3272584,44.5070229 131.407437,44.5070229 Z" id="もやし" stroke="#979797" fill="#FCFCE8" transform="translate(131.407437, 43.174755) rotate(13.000000) translate(-131.407437, -43.174755) "></path>
                <path d="M146.335969,58.6352083 C242.540182,58.6352083 284.335969,73.5471483 284.335969,63.914487 C284.335969,59.5181173 271.46602,55.6437023 250.228081,52.7305769 C224.932656,49.2609021 250.228081,47.1549104 146.335969,47.1549104 C70.1206737,47.1549104 8.33596919,54.2818258 8.33596919,63.914487 C8.33596919,73.5471483 50.1317568,58.6352083 146.335969,58.6352083 Z" id="もやし" stroke="#979797" fill="#FCFCE8" transform="translate(146.335969, 57.154910) rotate(-355.000000) translate(-146.335969, -57.154910) "></path>
                <path d="M151,71.480298 C247.204212,71.480298 289,86.3922379 289,76.7595766 C289,72.3632069 276.130051,68.4887919 254.892112,65.5756666 C229.596687,62.1059917 254.892112,60 151,60 C74.7847045,60 13,67.1269154 13,76.7595766 C13,86.3922379 54.7957876,71.480298 151,71.480298 Z" id="もやし" stroke="#979797" fill="#FCFCE8"></path>
                <g id="Rectangle-9" transform="translate(93.959329, 55.502761) rotate(51.000000) translate(-93.959329, -55.502761) ">
                    <use fill="#B8E986" fill-rule="evenodd" xlink:href="#path-1"></use>
                    <path stroke="#C5C5C5" stroke-width="1" d="M65.4839664,44.0105739 L71.9090408,86.4424293 L71.8933117,86.6618825 L65.632697,107.385505 L122.266888,107.385505 L108.999148,67.3499943 L122.3668,43.9151389 L93.9593287,3.98257397 L65.4839664,44.0105739 Z"></path>
                </g>
                <g id="Rectangle-9" transform="translate(229.864786, 94.306108) rotate(110.000000) translate(-229.864786, -94.306108) ">
                    <use fill="#B8E986" fill-rule="evenodd" xlink:href="#path-2"></use>
                    <path stroke="#BDBBBB" stroke-width="1" d="M201.697703,82.3805712 C215.126025,85.7621286 222.299233,90.1890825 223.147907,95.7938096 C223.997188,101.402553 218.863779,111.275033 207.771917,125.554116 L201.785286,145.370806 C218.845035,132.576169 229.46732,126.209458 233.878672,126.209458 C238.242941,126.209458 246.108484,132.350455 257.669283,144.670856 L244.904606,106.153341 L258.176907,82.8856445 C248.360572,77.5664213 242.029061,72.9131369 239.166781,68.8896115 C236.343244,64.9205473 233.182525,56.3315326 229.654174,43.0819945 L201.697703,82.3805712 Z"></path>
                </g>
            </g>
        </g>
    </g>
</svg>